ffmpeg version 5.0.1-static https://johnvansickle.com/ffmpeg/  Copyright (c) 2000-2022 the FFmpeg developers
  built with gcc 8 (Debian 8.3.0-6)
  configuration: --enable-gpl --enable-version3 --enable-static --disable-debug --disable-ffplay --disable-indev=sndio --disable-outdev=sndio --cc=gcc --enable-fontconfig --enable-frei0r --enable-gnutls --enable-gmp --enable-libgme --enable-gray --enable-libfribidi --enable-libass --enable-libfreetype --enable-libmp3lame --enable-libopencore-amrnb --enable-libopencore-amrwb --enable-libopenjpeg --enable-librubberband --enable-libsoxr --enable-libspeex --enable-libsrt --enable-libvorbis --enable-libopus --enable-libtheora --enable-libvidstab --enable-libvo-amrwbenc --enable-libvpx --enable-libwebp --enable-libx264 --enable-libx265 --enable-libxml2 --enable-libxvid --enable-libzimg
  libavutil      57. 17.100 / 57. 17.100
  libavcodec     59. 18.100 / 59. 18.100
  libavformat    59. 16.100 / 59. 16.100
  libavdevice    59.  4.100 / 59.  4.100
  libavfilter     8. 24.100 /  8. 24.100
  libswscale      6.  4.100 /  6.  4.100
  libswresample   4.  3.100 /  4.  3.100
  libpostproc    56.  3.100 / 56.  3.100
Input #0, image2, from '../AnimationData/Spin/%03dspin.png':
  Duration: 00:00:14.40, start: 0.000000, bitrate: N/A
  Stream #0:0: Video: png, rgba(pc), 1920x1440 [SAR 11811:11811 DAR 4:3], 25 fps, 25 tbr, 25 tbn
Stream mapping:
  Stream #0:0 -> #0:0 (png (native) -> h264 (libx264))
Press [q] to stop, [?] for help
[libx264 @ 0xb9b82c0] using SAR=1/1
[libx264 @ 0xb9b82c0] using cpu capabilities: MMX2 SSE2Fast SSSE3 SSE4.2 AVX FMA3 BMI2 AVX2
[libx264 @ 0xb9b82c0] profile High, level 5.1, 4:2:0, 8-bit
[libx264 @ 0xb9b82c0] 264 - core 164 r3094 bfc87b7 - H.264/MPEG-4 AVC codec - Copyleft 2003-2022 - http://www.videolan.org/x264.html - options: cabac=1 ref=3 deblock=1:0:0 analyse=0x3:0x113 me=hex subme=7 psy=1 psy_rd=1.00:0.00 mixed_ref=1 me_range=16 chroma_me=1 trellis=1 8x8dct=1 cqm=0 deadzone=21,11 fast_pskip=1 chroma_qp_offset=-2 threads=45 lookahead_threads=7 sliced_threads=0 nr=0 decimate=1 interlaced=0 bluray_compat=0 constrained_intra=0 bframes=3 b_pyramid=2 b_adapt=1 b_bias=0 direct=1 weightb=1 open_gop=0 weightp=2 keyint=250 keyint_min=25 scenecut=40 intra_refresh=0 rc_lookahead=40 rc=crf mbtree=1 crf=23.0 qcomp=0.60 qpmin=0 qpmax=69 qpstep=4 ip_ratio=1.40 aq=1:1.00
Output #0, mp4, to '../AnimationData/Spin/Spin.mp4':
  Metadata:
    encoder         : Lavf59.16.100
  Stream #0:0: Video: h264 (avc1 / 0x31637661), yuv420p(tv, progressive), 1920x1440 [SAR 1:1 DAR 4:3], q=2-31, 72 fps, 18432 tbn
    Metadata:
      encoder         : Lavc59.18.100 libx264
    Side data:
      cpb: bitrate max/min/avg: 0/0/0 buffer size: 0 vbv_delay: N/A
frame=    3 fps=0.0 q=0.0 size=       0kB time=00:00:00.00 bitrate=N/A dup=2 drop=0 speed=   0x    frame=   32 fps=0.0 q=0.0 size=       0kB time=00:00:00.00 bitrate=N/A dup=2 drop=0 speed=   0x    frame=   74 fps= 73 q=0.0 size=       0kB time=00:00:00.00 bitrate=N/A dup=2 drop=0 speed=   0x    frame=  121 fps= 80 q=32.0 size=       0kB time=00:00:00.40 bitrate=   1.0kbits/s dup=2 drop=0 speed=0.266x    frame=  170 fps= 84 q=32.0 size=     256kB time=00:00:01.08 bitrate=1936.1kbits/s dup=2 drop=0 speed=0.534x    frame=  219 fps= 87 q=32.0 size=     512kB time=00:00:01.76 bitrate=2378.0kbits/s dup=2 drop=0 speed=0.697x    frame=  266 fps= 87 q=32.0 size=     512kB time=00:00:02.41 bitrate=1735.7kbits/s dup=2 drop=0 speed=0.795x    frame=  314 fps= 89 q=32.0 size=     768kB time=00:00:03.08 bitrate=2040.6kbits/s dup=2 drop=0 speed=0.869x    frame=  362 fps= 89 q=32.0 size=    1024kB time=00:00:03.75 bitrate=2237.0kbits/s dup=2 drop=0 speed=0.926x    frame=  362 fps= 86 q=-1.0 Lsize=    1570kB time=00:00:04.98 bitrate=2580.2kbits/s dup=2 drop=0 speed=1.18x    
video:1568kB audio:0kB subtitle:0kB other streams:0kB global headers:0kB muxing overhead: 0.149525%
[libx264 @ 0xb9b82c0] frame I:2     Avg QP:24.29  size: 32416
[libx264 @ 0xb9b82c0] frame P:357   Avg QP:24.11  size:  4304
[libx264 @ 0xb9b82c0] frame B:3     Avg QP:20.32  size:  1277
[libx264 @ 0xb9b82c0] consecutive B-frames: 98.6%  0.6%  0.8%  0.0%
[libx264 @ 0xb9b82c0] mb I  I16..4: 28.0% 60.6% 11.4%
[libx264 @ 0xb9b82c0] mb P  I16..4:  0.4%  1.3%  0.1%  P16..4:  7.8%  3.0%  0.8%  0.0%  0.0%    skip:86.5%
[libx264 @ 0xb9b82c0] mb B  I16..4:  0.1%  0.1%  0.0%  B16..8:  8.8%  0.7%  0.0%  direct: 0.0%  skip:90.3%  L0:70.9% L1:27.4% BI: 1.8%
[libx264 @ 0xb9b82c0] 8x8 transform intra:67.9% inter:68.2%
[libx264 @ 0xb9b82c0] coded y,uvDC,uvAC intra: 6.7% 0.0% 0.0% inter: 0.9% 0.0% 0.0%
[libx264 @ 0xb9b82c0] i16 v,h,dc,p: 58% 26% 11%  4%
[libx264 @ 0xb9b82c0] i8 v,h,dc,ddl,ddr,vr,hd,vl,hu: 17%  5% 76%  0%  0%  0%  0%  0%  0%
[libx264 @ 0xb9b82c0] i4 v,h,dc,ddl,ddr,vr,hd,vl,hu: 46% 16% 26%  2%  3%  2%  1%  2%  2%
[libx264 @ 0xb9b82c0] i8c dc,h,v,p: 100%  0%  0%  0%
[libx264 @ 0xb9b82c0] Weighted P-Frames: Y:0.0% UV:0.0%
[libx264 @ 0xb9b82c0] ref P L0: 81.2%  2.9% 11.7%  4.2%
[libx264 @ 0xb9b82c0] ref B L0: 89.3% 10.7%
[libx264 @ 0xb9b82c0] kb/s:2553.91
